<svg xmlns:xlink="http://www.w3.org/1999/xlink" id="b" xmlns="http://www.w3.org/2000/svg" viewBox="0 0 159.34 34.66" width="159.34"  height="34.66" ><defs><style>.d{fill:#335649}</style></defs><g id="c"><path class="d" d="M5.05 33.09c-1.63-1.05-2.88-2.46-3.75-4.22C.43 27.11 0 25.15 0 23c0-1.95.39-3.8 1.18-5.54.79-1.74 1.95-3.14 3.49-4.2 1.54-1.06 3.41-1.59 5.61-1.59 2.78 0 4.89.88 6.34 2.63 1.45 1.75 2.17 4.32 2.17 7.7v1.04H3.02l.03-2.59h10.66c0-1.85-.35-3.25-1.04-4.19-.69-.94-1.71-1.41-3.05-1.41-1.13 0-2.12.31-2.95.93-.83.62-1.47 1.44-1.91 2.48a8.457 8.457 0 00-.66 3.33c0 1.41.29 2.7.89 3.89s1.45 2.12 2.57 2.81c1.12.69 2.46 1.04 4.01 1.04 1.32 0 2.63-.25 3.94-.74s2.52-1.22 3.63-2.19v5.22c-1.27 1.01-2.62 1.77-4.04 2.28-1.42.51-2.86.76-4.32.76-2.18 0-4.08-.52-5.71-1.57zM22.5 33.24c-1.09-.95-1.63-2.29-1.63-4.02 0-1.48.37-2.65 1.11-3.5.74-.85 1.68-1.46 2.83-1.83 1.15-.37 2.59-.67 4.32-.89l3.99-.59c1.6-.2 2.83-.59 3.7-1.17.87-.58 1.3-1.46 1.3-2.65 0-1.11-.42-1.98-1.25-2.59-.83-.62-1.86-.93-3.09-.93-.95 0-1.86.2-2.74.61-.88.41-1.61 1-2.19 1.78-.58.78-.88 1.72-.9 2.83h-5.31c.02-1.68.5-3.18 1.44-4.5.94-1.32 2.18-2.34 3.71-3.06 1.54-.72 3.22-1.07 5.05-1.07 1.55 0 2.95.28 4.2.83 1.25.56 2.24 1.43 2.99 2.61.74 1.19 1.11 2.64 1.11 4.37v14.78h-4.65V28.1a9.092 9.092 0 01-2.05 3.35c-.95 1-2.08 1.78-3.38 2.35-1.31.57-2.7.85-4.18.85-1.83 0-3.29-.48-4.37-1.43zM32.45 30c1.08-.57 1.97-1.41 2.69-2.52s1.08-2.43 1.08-3.96v-.56l1.15.33c-.56.35-1.15.63-1.79.85-.64.22-1.37.41-2.2.56l-3.02.52c-1.04.17-1.86.36-2.45.56-.59.2-1.06.49-1.41.87-.35.38-.52.92-.52 1.61 0 .84.31 1.48.92 1.93s1.39.67 2.34.67c1.06 0 2.14-.28 3.21-.85zM44.54 12.04h4.62v6.85c.56-2.39 1.49-4.19 2.81-5.37s2.81-1.78 4.48-1.78c1.09 0 2.08.3 2.99.89v5.22c-.53-.39-1.13-.7-1.81-.91-.67-.21-1.35-.31-2.05-.31-.86 0-1.68.17-2.48.5-.8.33-1.51.81-2.14 1.44-.62.63-1.1 1.39-1.42 2.28v13.41h-5V12.04zM64.47 15.52h-3.65v-3.48h3.65V6.63h5v5.41h6.7v3.48h-6.7v18.74h-5V15.52zM78.21 4.81h5v13.81c.44-1.46 1.1-2.71 2-3.76.89-1.05 1.89-1.85 3-2.39s2.26-.81 3.44-.81 2.17.25 3.11.76 1.68 1.26 2.22 2.26c.54 1 .82 2.23.82 3.69v15.89h-5V20.08c0-1.36-.32-2.39-.95-3.09-.64-.7-1.46-1.06-2.48-1.06s-1.97.33-2.92 1c-.95.67-1.72 1.62-2.33 2.85-.6 1.23-.9 2.65-.9 4.26v10.22h-5V4.81zM101.72 26.48h5.38v7.78h-5.38v-7.78zM112.62 15.52h-4.55v-3.48h4.55V9.93c0-2.2.42-4.04 1.25-5.54.83-1.49 1.93-2.6 3.28-3.31C118.5.36 120 .01 121.65.01c1.48 0 2.85.31 4.1.93 1.25.62 2.26 1.51 3.02 2.69.76 1.17 1.17 2.56 1.21 4.17h-5.17c-.07-1.43-.52-2.53-1.34-3.3-.82-.77-1.86-1.15-3.11-1.15-1.32 0-2.34.4-3.06 1.19-.72.79-1.08 1.78-1.08 2.96 0 .79.2 1.53.61 2.22.4.69 1.02 1.25 1.84 1.69.82.43 1.81.65 2.97.65h4.13v3.48h-8.16v18.74h-5V15.52z"/><path class="d" d="M127.51 12.04h4.62v6.93c.39-1.48 1-2.78 1.82-3.89.82-1.11 1.77-1.96 2.85-2.54s2.19-.87 3.35-.87c1.69 0 3.07.57 4.15 1.72 1.08 1.15 1.61 2.8 1.61 4.94v1.85l-.38-.81c.35-1.56.93-2.91 1.74-4.07.81-1.16 1.77-2.06 2.88-2.69 1.11-.63 2.26-.94 3.44-.94 1.69 0 3.07.58 4.15 1.74 1.08 1.16 1.61 2.81 1.61 4.96v15.89h-5V19.93c0-1.26-.28-2.24-.85-2.94-.57-.7-1.3-1.06-2.2-1.06s-1.77.34-2.6 1.02-1.5 1.61-2.01 2.8c-.51 1.19-.76 2.51-.76 3.96v10.55h-4.96V19.93c0-1.26-.29-2.24-.87-2.94-.58-.7-1.32-1.06-2.22-1.06s-1.77.34-2.59 1.02c-.82.68-1.49 1.61-2 2.8-.51 1.19-.76 2.51-.76 3.96v10.55h-5V12.04z"/></g></svg>